<?xml version="1.0" encoding="UTF-8" standalone="no"?>
<!-- Created with Inkscape (http://www.inkscape.org/) -->

<svg
   xmlns:dc="http://purl.org/dc/elements/1.1/"
   xmlns:cc="http://creativecommons.org/ns#"
   xmlns:rdf="http://www.w3.org/1999/02/22-rdf-syntax-ns#"
   xmlns:svg="http://www.w3.org/2000/svg"
   xmlns="http://www.w3.org/2000/svg"
   xmlns:xlink="http://www.w3.org/1999/xlink"
   version="1.1"
   width="744.09448"
   height="1052.3622"
   id="svg3387"
   style="enable-background:new">
  <defs
     id="defs3389">
    <filter
       color-interpolation-filters="sRGB"
       id="filter4201">
      <feGaussianBlur
         stdDeviation="1.4974329"
         id="feGaussianBlur4203" />
    </filter>
    <filter
       color-interpolation-filters="sRGB"
       id="filter4189">
      <feGaussianBlur
         stdDeviation="3.1384629"
         id="feGaussianBlur4191" />
    </filter>
    <filter
       x="-0.3026087"
       y="-0.3026087"
       width="1.6052175"
       height="1.6052175"
       color-interpolation-filters="sRGB"
       id="filter4107">
      <feGaussianBlur
         stdDeviation="30.338474"
         id="feGaussianBlur4109" />
    </filter>
    <filter
       color-interpolation-filters="sRGB"
       id="filter4169">
      <feGaussianBlur
         stdDeviation="3.1329306"
         id="feGaussianBlur4171" />
    </filter>
    <filter
       x="-0.15135098"
       y="-0.15135098"
       width="1.302702"
       height="1.302702"
       color-interpolation-filters="sRGB"
       id="filter4157">
      <feGaussianBlur
         stdDeviation="15.173912"
         id="feGaussianBlur4159" />
    </filter>
    <filter
       color-interpolation-filters="sRGB"
       id="filter4808">
      <feGaussianBlur
         stdDeviation="1.576087"
         id="feGaussianBlur4810" />
    </filter>
    <linearGradient
       id="linearGradient4728">
      <stop
         id="stop4730"
         style="stop-color:#ffff0c;stop-opacity:1"
         offset="0" />
      <stop
         id="stop4732"
         style="stop-color:#ffff0c;stop-opacity:0"
         offset="1" />
    </linearGradient>
    <filter
       color-interpolation-filters="sRGB"
       id="filter4840">
      <feGaussianBlur
         stdDeviation="2.5217391"
         id="feGaussianBlur4842" />
    </filter>
    <linearGradient
       id="linearGradient4625">
      <stop
         id="stop4627"
         style="stop-color:#ffffff;stop-opacity:1"
         offset="0" />
      <stop
         id="stop4629"
         style="stop-color:#ffffff;stop-opacity:0"
         offset="1" />
    </linearGradient>
    <filter
       color-interpolation-filters="sRGB"
       id="filter4319">
      <feGaussianBlur
         stdDeviation="0.72697011"
         id="feGaussianBlur4321" />
    </filter>
    <filter
       color-interpolation-filters="sRGB"
       id="filter4303">
      <feGaussianBlur
         stdDeviation="1.3457201"
         id="feGaussianBlur4305" />
    </filter>
    <linearGradient
       id="linearGradient4625-1">
      <stop
         id="stop7492"
         style="stop-color:#406886;stop-opacity:1"
         offset="0" />
      <stop
         id="stop4629-9"
         style="stop-color:#000000;stop-opacity:1"
         offset="1" />
    </linearGradient>
    <linearGradient
       id="linearGradient7535">
      <stop
         id="stop7545"
         style="stop-color:#ffffff;stop-opacity:0.38392857"
         offset="0" />
      <stop
         id="stop7539"
         style="stop-color:#ffffff;stop-opacity:0"
         offset="1" />
    </linearGradient>
    <filter
       color-interpolation-filters="sRGB"
       id="filter7608">
      <feGaussianBlur
         stdDeviation="2.9059597"
         id="feGaussianBlur7610" />
    </filter>
    <linearGradient
       id="linearGradient4591">
      <stop
         id="stop4593"
         style="stop-color:#ffffff;stop-opacity:1"
         offset="0" />
      <stop
         id="stop4595"
         style="stop-color:#ffffff;stop-opacity:0"
         offset="1" />
    </linearGradient>
    <linearGradient
       id="linearGradient3498">
      <stop
         id="stop3500"
         style="stop-color:#406886;stop-opacity:1"
         offset="0" />
      <stop
         id="stop3502"
         style="stop-color:#000000;stop-opacity:1"
         offset="1" />
    </linearGradient>
    <linearGradient
       id="linearGradient3505">
      <stop
         id="stop3507"
         style="stop-color:#ffffff;stop-opacity:0.38392857"
         offset="0" />
      <stop
         id="stop3509"
         style="stop-color:#ffffff;stop-opacity:0"
         offset="1" />
    </linearGradient>
    <linearGradient
       id="linearGradient7430">
      <stop
         id="stop7432"
         style="stop-color:#000000;stop-opacity:1"
         offset="0" />
      <stop
         id="stop7434"
         style="stop-color:#000000;stop-opacity:0"
         offset="1" />
    </linearGradient>
    <filter
       color-interpolation-filters="sRGB"
       id="filter4645">
      <feBlend
         in2="BackgroundImage"
         mode="darken"
         id="feBlend4647" />
    </filter>
    <linearGradient
       x1="816.15186"
       y1="412.62476"
       x2="425.79575"
       y2="288.98944"
       id="linearGradient4982"
       xlink:href="#linearGradient4625"
       gradientUnits="userSpaceOnUse" />
    <linearGradient
       x1="-116.81336"
       y1="64.11824"
       x2="148.79393"
       y2="227.05623"
       id="linearGradient4984"
       xlink:href="#linearGradient4591"
       gradientUnits="userSpaceOnUse" />
    <linearGradient
       x1="748.57141"
       y1="1387.3621"
       x2="750.21857"
       y2="1441.6477"
       id="linearGradient4986"
       xlink:href="#linearGradient7535"
       gradientUnits="userSpaceOnUse"
       gradientTransform="matrix(1.0082738,0,0,-2.3913043,-390.54845,3588.8368)" />
    <linearGradient
       x1="748.57141"
       y1="1387.3621"
       x2="750.21857"
       y2="1441.6477"
       id="linearGradient4988"
       xlink:href="#linearGradient7535"
       gradientUnits="userSpaceOnUse"
       gradientTransform="matrix(1.0059099,0,0,2.3913043,-389.07386,-3307.3112)" />
    <linearGradient
       x1="-472.71347"
       y1="567.12354"
       x2="-472.71347"
       y2="510.91333"
       id="linearGradient4990"
       xlink:href="#linearGradient4728"
       gradientUnits="userSpaceOnUse" />
    <linearGradient
       x1="-469.92075"
       y1="404.8501"
       x2="-476.49524"
       y2="559.35083"
       id="linearGradient4992"
       xlink:href="#linearGradient4625"
       gradientUnits="userSpaceOnUse"
       gradientTransform="matrix(0.86915888,0,0,0.82749222,-25.847346,797.70608)" />
    <linearGradient
       x1="-469.92075"
       y1="404.8501"
       x2="-476.49524"
       y2="559.35083"
       id="linearGradient4994"
       xlink:href="#linearGradient4625"
       gradientUnits="userSpaceOnUse"
       gradientTransform="matrix(0.86915888,0,0,0.82749222,148.43577,233.14108)" />
    <linearGradient
       x1="604.90625"
       y1="1224.7478"
       x2="551.43298"
       y2="1129.0336"
       id="linearGradient4998"
       xlink:href="#linearGradient7430"
       gradientUnits="userSpaceOnUse"
       gradientTransform="translate(-364.65625,-287.63788)"
       spreadMethod="reflect" />
    <linearGradient
       x1="604.90625"
       y1="1224.7478"
       x2="551.43298"
       y2="1129.0336"
       id="linearGradient6626"
       xlink:href="#linearGradient7430"
       gradientUnits="userSpaceOnUse"
       gradientTransform="matrix(0.50323199,0,0,0.50323199,-183.50669,-545.16875)"
       spreadMethod="reflect" />
    <linearGradient
       x1="816.15186"
       y1="412.62476"
       x2="425.79575"
       y2="288.98944"
       id="linearGradient6629"
       xlink:href="#linearGradient4625"
       gradientUnits="userSpaceOnUse" />
    <linearGradient
       x1="-116.81336"
       y1="64.11824"
       x2="148.79393"
       y2="227.05623"
       id="linearGradient6631"
       xlink:href="#linearGradient4591"
       gradientUnits="userSpaceOnUse" />
    <linearGradient
       x1="748.57141"
       y1="1387.3621"
       x2="750.21857"
       y2="1441.6477"
       id="linearGradient6633"
       xlink:href="#linearGradient7535"
       gradientUnits="userSpaceOnUse"
       gradientTransform="matrix(1.0082738,0,0,-2.3913043,-390.54845,3588.8368)" />
    <linearGradient
       x1="748.57141"
       y1="1387.3621"
       x2="750.21857"
       y2="1441.6477"
       id="linearGradient6635"
       xlink:href="#linearGradient7535"
       gradientUnits="userSpaceOnUse"
       gradientTransform="matrix(1.0059099,0,0,2.3913043,-389.07386,-3307.3112)" />
    <linearGradient
       x1="816.15186"
       y1="412.62476"
       x2="425.79575"
       y2="288.98944"
       id="linearGradient3075"
       xlink:href="#linearGradient4625"
       gradientUnits="userSpaceOnUse" />
    <linearGradient
       x1="-116.81336"
       y1="64.11824"
       x2="148.79393"
       y2="227.05623"
       id="linearGradient3077"
       xlink:href="#linearGradient4591"
       gradientUnits="userSpaceOnUse" />
    <linearGradient
       x1="748.57141"
       y1="1387.3621"
       x2="750.21857"
       y2="1441.6477"
       id="linearGradient3084"
       xlink:href="#linearGradient7535"
       gradientUnits="userSpaceOnUse"
       gradientTransform="matrix(1.0082738,0,0,-2.3913043,-390.54845,3588.8368)" />
    <linearGradient
       x1="748.57141"
       y1="1387.3621"
       x2="750.21857"
       y2="1441.6477"
       id="linearGradient3086"
       xlink:href="#linearGradient7535"
       gradientUnits="userSpaceOnUse"
       gradientTransform="matrix(1.0059099,0,0,2.3913043,-389.07386,-3307.3112)" />
    <linearGradient
       x1="748.57141"
       y1="1387.3621"
       x2="750.21857"
       y2="1441.6477"
       id="linearGradient3089"
       xlink:href="#linearGradient7535"
       gradientUnits="userSpaceOnUse"
       gradientTransform="matrix(0.50620603,0,0,1.2033808,-199.60333,-1669.7894)" />
    <linearGradient
       x1="748.57141"
       y1="1387.3621"
       x2="750.21857"
       y2="1441.6477"
       id="linearGradient3092"
       xlink:href="#linearGradient7535"
       gradientUnits="userSpaceOnUse"
       gradientTransform="matrix(0.50739562,0,0,-1.2033808,-200.3454,1800.5728)" />
  </defs>
  <metadata
     id="metadata3392">
    <rdf:RDF>
      <cc:Work
         rdf:about="">
        <dc:format>image/svg+xml</dc:format>
        <dc:type
           rdf:resource="http://purl.org/dc/dcmitype/StillImage" />
        <dc:title></dc:title>
      </cc:Work>
    </rdf:RDF>
  </metadata>
  <path
     d="m 65.545965,0.350505 c -36.130555,0 -65.420156,28.815813 -65.420156,64.350793 0,35.534982 29.289601,64.335072 65.420156,64.335072 22.49148,0 42.323155,-11.1652 54.097435,-28.1653 l 146.15745,0 c 6.37235,0 11.51142,-5.123262 11.51142,-11.495662 l 0,-47.44535 c 0,-6.37234 -5.13907,-11.51144 -11.51142,-11.51144 l -144.88364,0 C 109.21711,12.151138 88.561815,0.350505 65.545965,0.350505 z"
     id="keyhole-widget-background"
     style="fill:#75bac6;fill-opacity:1;fill-rule:nonzero;stroke:#000000;stroke-width:0.251616;stroke-miterlimit:4;stroke-opacity:1;stroke-dasharray:none" />
  <path
     d="m 65.545965,0.350505 c -36.13055,0 -65.420157,28.815813 -65.420157,64.350793 0,35.534982 29.289607,64.335072 65.420157,64.335072 22.49148,0 42.323155,-11.1652 54.097435,-28.1653 l 146.15745,0 c 6.37235,0 11.51142,-5.123262 11.51142,-11.495662 l 0,-47.44535 c 0,-6.37234 -5.13907,-11.51144 -11.51142,-11.51144 l -144.88364,0 C 109.21711,12.151138 88.561815,0.350505 65.545965,0.350505 z"
     id="keyhole-outer-metal-rim"
     style="fill:url(#linearGradient6626);fill-opacity:1;fill-rule:nonzero;stroke:#000000;stroke-width:0.251616;stroke-miterlimit:4;stroke-opacity:1;stroke-dasharray:none" />
  <path
     d="m 65.608875,7.1834649 c -32.295481,0 -58.469271,25.7468531 -58.469271,57.5099531 0,31.76319 26.17379,57.509952 58.469271,57.509952 21.23968,0 39.829435,-11.143 50.071575,-27.803462 l 149.41272,0 c 2.87731,0 5.20531,-2.3123 5.20531,-5.1896 l 0,-47.85427 c 0,-2.87728 -2.328,-5.18953 -5.20531,-5.18953 l -148.70505,0 C 106.20743,18.633498 87.060795,7.1834649 65.608875,7.1834649 z"
     id="keyhole-content-background"
     style="fill:#000000;fill-opacity:1;fill-rule:evenodd;stroke:none" />
  <g
     transform="translate(-188.70645,447.47476)"
     id="sunny">
    <g
       transform="matrix(0.78056405,0,0,0.78056405,625.23168,-883.35237)"
       id="g4868">
      <path
         d="m -425.71428,468.07646 -85.77853,-72.4498 2.25787,111.22938 -9.42485,-111.88433 -77.05448,80.2476 72.44979,-85.77853 -111.22937,2.25787 111.88432,-9.42484 -80.2476,-77.05449 85.77853,72.44979 -2.25787,-111.22937 9.42484,111.88432 77.05449,-80.2476 -72.44979,85.77854 111.22937,-2.25787 -111.88432,9.42484 z"
         transform="matrix(0.84353951,-0.22606928,0.22606928,0.84353951,-97.255946,782.33555)"
         id="path4844"
         style="opacity:0.82692309;fill:#ffffe7;fill-opacity:0.96296297;fill-rule:nonzero;stroke:none;filter:url(#filter4201)" />
      <path
         d="m -425.71428,468.07646 -47.706,-38.9967 38.70919,47.80886 -43.36839,-43.76971 33.49975,51.59317 -38.55564,-48.06316 27.92328,54.81221 -33.32045,-51.83002 22.04087,57.43072 -27.7202,-55.02903 15.91698,59.42001 -21.81625,-57.62513 9.61871,60.75828 -15.67328,-59.58987 3.21505,61.43087 -9.35858,-60.90174 -3.22383,61.43041 -2.94135,-61.54635 -9.6274,60.75691 3.50811,-61.51665 -15.92549,59.41774 9.91913,-60.81296 -22.04909,57.42757 16.22148,-59.44298 -27.93112,54.80822 22.3461,-57.42174 -33.50713,51.58838 28.22589,-54.77138 -38.71602,47.80332 33.79643,-51.52092 -43.50074,43.49452 38.99669,-47.70599 -47.80885,38.70919 43.7697,-43.3684 -51.59317,33.49975 48.06316,-38.55563 -54.81221,27.92328 51.83003,-33.32046 -57.43073,22.04088 55.02903,-27.72021 -59.42001,15.91699 57.62513,-21.81626 -60.75828,9.61871 59.58987,-15.67327 -61.43087,3.21505 60.90174,-9.35858 -61.43041,-3.22384 61.54635,-2.94135 -60.7569,-9.6274 61.51664,3.50811 -59.41773,-15.92549 60.81295,9.91914 -57.42757,-22.0491 59.44298,16.22148 -54.80822,-27.93112 57.42174,22.3461 -51.58837,-33.50713 54.77137,28.2259 -47.80332,-38.71603 51.52092,33.79643 -43.49452,-43.50074 47.70599,38.9967 -38.70918,-47.80886 43.36839,43.7697 -33.49975,-51.59316 38.55563,48.06316 -27.92327,-54.81222 33.32045,51.83003 -22.04088,-57.43072 27.72021,55.02903 -15.91698,-59.42001 21.81625,57.62513 -9.61871,-60.75828 15.67327,59.58987 -3.21504,-61.43087 9.35857,60.90173 3.22384,-61.4304 2.94135,61.54634 9.6274,-60.7569 -3.50811,61.51664 15.92549,-59.41773 -9.91913,60.81295 22.04909,-57.42757 -16.22148,59.44298 27.93112,-54.80821 -22.3461,57.42174 33.50713,-51.58838 -28.22589,54.77137 38.71602,-47.80332 -33.79643,51.52093 43.50074,-43.49453 -38.9967,47.706 47.80886,-38.70919 -43.7697,43.36839 51.59317,-33.49975 -48.06316,38.55564 54.81221,-27.92328 -51.83003,33.32045 57.43073,-22.04087 -55.02904,27.72021 59.42002,-15.91699 -57.62513,21.81625 60.75828,-9.61871 -59.58987,15.67328 61.43086,-3.21505 -60.90173,9.35858 61.43041,3.22384 -61.54635,2.94134 60.7569,9.62741 -61.51664,-3.50811 59.41773,15.92548 -60.81295,-9.91913 57.42757,22.04909 -59.44298,-16.22148 54.80822,27.93112 -57.42174,-22.3461 51.58837,33.50713 -54.77137,-28.22589 47.80332,38.71603 -51.52092,-33.79644 z"
         transform="matrix(0.73632619,0,0,0.73632619,-64.985006,940.05354)"
         id="path4846"
         style="opacity:0.82692309;fill:#ffec00;fill-opacity:1;fill-rule:nonzero;stroke:none;filter:url(#filter4189)" />
      <path
         d="m -425.71428,468.07646 -47.706,-38.9967 38.70919,47.80886 -43.36839,-43.76971 33.49975,51.59317 -38.55564,-48.06316 27.92328,54.81221 -33.32045,-51.83002 22.04087,57.43072 -27.7202,-55.02903 15.91698,59.42001 -21.81625,-57.62513 9.61871,60.75828 -15.67328,-59.58987 3.21505,61.43087 -9.35858,-60.90174 -3.22383,61.43041 -2.94135,-61.54635 -9.6274,60.75691 3.50811,-61.51665 -15.92549,59.41774 9.91913,-60.81296 -22.04909,57.42757 16.22148,-59.44298 -27.93112,54.80822 22.3461,-57.42174 -33.50713,51.58838 28.22589,-54.77138 -38.71602,47.80332 33.79643,-51.52092 -43.50074,43.49452 38.99669,-47.70599 -47.80885,38.70919 43.7697,-43.3684 -51.59317,33.49975 48.06316,-38.55563 -54.81221,27.92328 51.83003,-33.32046 -57.43073,22.04088 55.02903,-27.72021 -59.42001,15.91699 57.62513,-21.81626 -60.75828,9.61871 59.58987,-15.67327 -61.43087,3.21505 60.90174,-9.35858 -61.43041,-3.22384 61.54635,-2.94135 -60.7569,-9.6274 61.51664,3.50811 -59.41773,-15.92549 60.81295,9.91914 -57.42757,-22.0491 59.44298,16.22148 -54.80822,-27.93112 57.42174,22.3461 -51.58837,-33.50713 54.77137,28.2259 -47.80332,-38.71603 51.52092,33.79643 -43.49452,-43.50074 47.70599,38.9967 -38.70918,-47.80886 43.36839,43.7697 -33.49975,-51.59316 38.55563,48.06316 -27.92327,-54.81222 33.32045,51.83003 -22.04088,-57.43072 27.72021,55.02903 -15.91698,-59.42001 21.81625,57.62513 -9.61871,-60.75828 15.67327,59.58987 -3.21504,-61.43087 9.35857,60.90173 3.22384,-61.4304 2.94135,61.54634 9.6274,-60.7569 -3.50811,61.51664 15.92549,-59.41773 -9.91913,60.81295 22.04909,-57.42757 -16.22148,59.44298 27.93112,-54.80821 -22.3461,57.42174 33.50713,-51.58838 -28.22589,54.77137 38.71602,-47.80332 -33.79643,51.52093 43.50074,-43.49453 -38.9967,47.706 47.80886,-38.70919 -43.7697,43.36839 51.59317,-33.49975 -48.06316,38.55564 54.81221,-27.92328 -51.83003,33.32045 57.43073,-22.04087 -55.02904,27.72021 59.42002,-15.91699 -57.62513,21.81625 60.75828,-9.61871 -59.58987,15.67328 61.43086,-3.21505 -60.90173,9.35858 61.43041,3.22384 -61.54635,2.94134 60.7569,9.62741 -61.51664,-3.50811 59.41773,15.92548 -60.81295,-9.91913 57.42757,22.04909 -59.44298,-16.22148 54.80822,27.93112 -57.42174,-22.3461 51.58837,33.50713 -54.77137,-28.22589 47.80332,38.71603 -51.52092,-33.79644 z"
         transform="matrix(0.79219958,0,0,0.79219958,-36.250126,918.45022)"
         id="path4848"
         style="opacity:0.96017701;fill:#fffd0c;fill-opacity:1;fill-rule:nonzero;stroke:none;filter:url(#filter4107)" />
      <path
         d="m -425.71428,468.07646 -85.77853,-72.4498 2.25787,111.22938 -9.42485,-111.88433 -77.05448,80.2476 72.44979,-85.77853 -111.22937,2.25787 111.88432,-9.42484 -80.2476,-77.05449 85.77853,72.44979 -2.25787,-111.22937 9.42484,111.88432 77.05449,-80.2476 -72.44979,85.77854 111.22937,-2.25787 -111.88432,9.42484 z"
         transform="matrix(0.99477462,0.10209529,-0.10209529,0.99477462,107.40625,892.63115)"
         id="path4850"
         style="opacity:0.82692309;fill:#ffff49;fill-opacity:0.95767194;fill-rule:nonzero;stroke:none;filter:url(#filter4169)" />
      <path
         d="m -425.71428,468.07646 -47.706,-38.9967 38.70919,47.80886 -43.36839,-43.76971 33.49975,51.59317 -38.55564,-48.06316 27.92328,54.81221 -33.32045,-51.83002 22.04087,57.43072 -27.7202,-55.02903 15.91698,59.42001 -21.81625,-57.62513 9.61871,60.75828 -15.67328,-59.58987 3.21505,61.43087 -9.35858,-60.90174 -3.22383,61.43041 -2.94135,-61.54635 -9.6274,60.75691 3.50811,-61.51665 -15.92549,59.41774 9.91913,-60.81296 -22.04909,57.42757 16.22148,-59.44298 -27.93112,54.80822 22.3461,-57.42174 -33.50713,51.58838 28.22589,-54.77138 -38.71602,47.80332 33.79643,-51.52092 -43.50074,43.49452 38.99669,-47.70599 -47.80885,38.70919 43.7697,-43.3684 -51.59317,33.49975 48.06316,-38.55563 -54.81221,27.92328 51.83003,-33.32046 -57.43073,22.04088 55.02903,-27.72021 -59.42001,15.91699 57.62513,-21.81626 -60.75828,9.61871 59.58987,-15.67327 -61.43087,3.21505 60.90174,-9.35858 -61.43041,-3.22384 61.54635,-2.94135 -60.7569,-9.6274 61.51664,3.50811 -59.41773,-15.92549 60.81295,9.91914 -57.42757,-22.0491 59.44298,16.22148 -54.80822,-27.93112 57.42174,22.3461 -51.58837,-33.50713 54.77137,28.2259 -47.80332,-38.71603 51.52092,33.79643 -43.49452,-43.50074 47.70599,38.9967 -38.70918,-47.80886 43.36839,43.7697 -33.49975,-51.59316 38.55563,48.06316 -27.92327,-54.81222 33.32045,51.83003 -22.04088,-57.43072 27.72021,55.02903 -15.91698,-59.42001 21.81625,57.62513 -9.61871,-60.75828 15.67327,59.58987 -3.21504,-61.43087 9.35857,60.90173 3.22384,-61.4304 2.94135,61.54634 9.6274,-60.7569 -3.50811,61.51664 15.92549,-59.41773 -9.91913,60.81295 22.04909,-57.42757 -16.22148,59.44298 27.93112,-54.80821 -22.3461,57.42174 33.50713,-51.58838 -28.22589,54.77137 38.71602,-47.80332 -33.79643,51.52093 43.50074,-43.49453 -38.9967,47.706 47.80886,-38.70919 -43.7697,43.36839 51.59317,-33.49975 -48.06316,38.55564 54.81221,-27.92328 -51.83003,33.32045 57.43073,-22.04087 -55.02904,27.72021 59.42002,-15.91699 -57.62513,21.81625 60.75828,-9.61871 -59.58987,15.67328 61.43086,-3.21505 -60.90173,9.35858 61.43041,3.22384 -61.54635,2.94134 60.7569,9.62741 -61.51664,-3.50811 59.41773,15.92548 -60.81295,-9.91913 57.42757,22.04909 -59.44298,-16.22148 54.80822,27.93112 -57.42174,-22.3461 51.58837,33.50713 -54.77137,-28.22589 47.80332,38.71603 -51.52092,-33.79644 z"
         transform="matrix(0.80378827,0,0,0.76485513,-30.290226,929.02289)"
         id="path4852"
         style="opacity:0.84513275;fill:#ff8a0c;fill-opacity:1;fill-rule:nonzero;stroke:none;filter:url(#filter4157)" />
      <path
         d="m -404.28572,509.50504 a 76.428575,68.571427 0 1 1 -152.85715,0 76.428575,68.571427 0 1 1 152.85715,0 z"
         transform="matrix(0.93310514,0,0,0.93310514,4.88993,747.90218)"
         id="path4854"
         style="opacity:0.8539823;fill:#ff8f0c;fill-opacity:1;fill-rule:nonzero;stroke:none;filter:url(#filter4808)" />
      <path
         d="m -404.28572,509.50504 a 76.428575,68.571427 0 1 1 -152.85715,0 76.428575,68.571427 0 1 1 152.85715,0 z"
         transform="matrix(0.83868769,0,0,0.83868769,-40.497886,798.15119)"
         id="path4856"
         style="opacity:0.6460177;fill:url(#linearGradient4990);fill-opacity:1;fill-rule:nonzero;stroke:none;filter:url(#filter4840)" />
      <path
         d="m -443.66705,1162.5784 c -36.68749,0 -66.4375,25.4121 -66.4375,56.75 0,12.4545 4.72333,23.9546 12.6875,33.3125 10.88006,-18.659 33.40761,-31.5 59.46875,-31.5 22.10693,0 41.67478,9.2491 53.75,23.4375 4.4386,-7.6097 6.96875,-16.1706 6.96875,-25.25 0,-31.3379 -29.75001,-56.75 -66.4375,-56.75 z"
         id="path4858"
         style="opacity:0.81415926;fill:url(#linearGradient4992);fill-opacity:1;fill-rule:nonzero;stroke:none;filter:url(#filter4319)" />
      <path
         d="m -269.375,598 c -36.68749,0 -66.4375,25.41208 -66.4375,56.75 0,5.89613 1.07136,11.5952 3.03125,16.9375 -0.11195,-1.34303 -0.1875,-2.69488 -0.1875,-4.0625 0,-31.33792 29.75001,-56.75 66.4375,-56.75 29.72398,0 54.89096,16.68903 63.375,39.6875 C -205.67904,621.19008 -234.34539,598 -269.375,598 z"
         transform="matrix(-0.86980222,0,0,-0.57221439,-678.06516,1628.0192)"
         id="path4860"
         style="opacity:0.33628319;fill:url(#linearGradient4994);fill-opacity:1;fill-rule:nonzero;stroke:none;filter:url(#filter4303)" />
    </g>
  </g>
  <path
     d="m 504,381.5 c 0,68.09616 -47.0101,123.29901 -105,123.29901 -57.9899,0 -105,-55.20285 -105,-123.29901 0,-68.09616 47.0101,-123.29901 105,-123.29901 57.9899,0 105,55.20285 105,123.29901 z"
     transform="matrix(0.07542637,0.22779962,-0.32633786,0.05279491,166.52815,-14.136685)"
     id="keyhole-lower-right-circle-glare"
     style="fill:url(#linearGradient3075);fill-opacity:1;fill-rule:nonzero;stroke:none;filter:url(#filter7608)" />
  <path
     d="m 187,173 c 0,74.00616 -37.60808,134 -84,134 C 56.608081,307 19,247.00616 19,173 19,98.993844 56.608081,39 103,39 c 46.39192,0 84,59.993844 84,134 z"
     transform="matrix(0.27654374,0.13369495,-0.21113577,0.17511246,60.050271,-10.349852)"
     id="keyhole-upper-left-circle-glare"
     style="fill:url(#linearGradient3077);fill-opacity:1;fill-rule:nonzero;stroke:none;filter:url(#filter7608)" />
  <path
     d="m 116.15625,94.083841 c 2.86983,-5.068457 4.98785,-10.617495 6.19975,-16.543751 l 1.14164,-11.259816 c 0,-4.020552 -0.41607,-7.943783 -1.22093,-11.731595 l 143.92595,0 c 1.80705,0 3.26636,1.44733 3.26636,3.239556 l 0,33.05605 c 0,1.792226 -1.45931,3.239556 -3.26636,3.239556 l -150.04641,0 z"
     id="keyhole-right-bottom-glare"
     style="fill:url(#linearGradient3092);fill-opacity:1;fill-rule:nonzero;stroke:none" />
  <path
     d="m 116.15625,36.699448 c 2.8631,5.068457 4.97616,10.617495 6.18521,16.543751 l 1.13896,11.259816 c 0,4.020552 -0.41509,7.943783 -1.21805,11.731595 l 143.5885,0 c 1.80282,0 3.2587,-1.44733 3.2587,-3.239555 l 0,-33.056051 c 0,-1.792226 -1.45588,-3.239556 -3.2587,-3.239556 l -149.69462,0 z"
     id="keyhole-right-top-glare"
     style="fill:url(#linearGradient3089);fill-opacity:1;fill-rule:nonzero;stroke:none" />
</svg>
